G04 ================== begin FILE IDENTIFICATION RECORD ==================*
G04 Layout Name:  caleidoscop1.brd*
G04 Film Name:    SMASK*
G04 File Format:  Gerber RS274X*
G04 File Origin:  Cadence Allegro 17.4-S012*
G04 Origin Date:  Tue Jun  1 15:34:41 2021*
G04 *
G04 Layer:  VIA CLASS/SOLDERMASK_TOP*
G04 Layer:  VIA CLASS/SOLDERMASK_BOTTOM*
G04 Layer:  PIN/SOLDERMASK_TOP*
G04 Layer:  PIN/SOLDERMASK_BOTTOM*
G04 Layer:  PACKAGE GEOMETRY/BODY_CENTER*
G04 Layer:  DRC ERROR CLASS/SOLDERMASK_TOP*
G04 Layer:  DRC ERROR CLASS/SOLDERMASK_BOTTOM*
G04 Layer:  BOARD GEOMETRY/OUTLINE*
G04 Layer:  BOARD GEOMETRY/DESIGN_OUTLINE*
G04 *
G04 Offset:    (0.00 0.00)*
G04 Mirror:    No*
G04 Mode:      Positive*
G04 Rotation:  0*
G04 FullContactRelief:  No*
G04 UndefLineWidth:     8.00*
G04 ================== end FILE IDENTIFICATION RECORD ====================*
%FSLAX25Y25*MOIN*%
%IR0*IPPOS*OFA0.00000B0.00000*MIA0B0*SFA1.00000B1.00000*%
%ADD16C,.052*%
%ADD14C,.08*%
%ADD12C,.044*%
%ADD11C,.075*%
%ADD17R,.06X.06*%
%ADD15R,.052X.052*%
%ADD18R,.08X.08*%
%ADD19R,.03X.055*%
%ADD13R,.055X.03*%
%ADD10C,.145*%
%ADD20C,.008*%
G75*
%LPD*%
G75*
G54D10*
X1160000Y750000D03*
D03*
Y945000D03*
D03*
X1395000Y750000D03*
D03*
Y945000D03*
D03*
G54D20*
G01X1150000Y740000D02*
Y956535D01*
X1405906D01*
Y740000D01*
X1150000D01*
G54D11*
X1174000Y795000D03*
D03*
Y785000D03*
D03*
X1285000Y802500D03*
D03*
X1275000D03*
D03*
X1265000D03*
D03*
X1285000Y825000D03*
D03*
X1275000D03*
D03*
X1265000D03*
D03*
X1285000Y845000D03*
D03*
X1275000D03*
D03*
X1265000D03*
D03*
X1285000Y870000D03*
D03*
X1275000D03*
D03*
X1265000D03*
D03*
X1285000Y890000D03*
D03*
X1275000D03*
D03*
X1265000D03*
D03*
X1285000Y917500D03*
D03*
X1275000D03*
D03*
X1265000D03*
D03*
X1290000Y940000D03*
D03*
X1280000D03*
D03*
X1381000Y777000D03*
D03*
Y787000D03*
D03*
G54D12*
X1164500Y804500D03*
D03*
X1167500Y867500D03*
D03*
X1200000Y837500D03*
D03*
X1173250Y874250D03*
D03*
X1200000Y895000D03*
D03*
X1207500Y870000D03*
D03*
Y885000D03*
D03*
X1350000Y835000D03*
D03*
Y857500D03*
D03*
Y897500D03*
D03*
X1347500Y927500D03*
D03*
X1335000Y925000D03*
D03*
X1370000Y795000D03*
D03*
X1358500Y831500D03*
D03*
X1360000Y820000D03*
D03*
X1372500Y815000D03*
D03*
X1367500Y900000D03*
D03*
X1355000Y872500D03*
D03*
X1380000Y917500D03*
D03*
X1352500Y940000D03*
D03*
X1380000Y932500D03*
D03*
X1390000Y855000D03*
D03*
X1382500Y940000D03*
D03*
G54D13*
X1192750Y832500D03*
Y837500D03*
X1173250D03*
Y832500D03*
X1192750Y862500D03*
Y867500D03*
Y857500D03*
Y847500D03*
Y852500D03*
Y842500D03*
X1173250Y867500D03*
Y862500D03*
Y857500D03*
Y852500D03*
Y847500D03*
Y842500D03*
X1361250Y836500D03*
Y831500D03*
X1380750D03*
Y836500D03*
X1361250Y841500D03*
Y851500D03*
Y846500D03*
Y856500D03*
Y866500D03*
Y861500D03*
X1380750Y841500D03*
Y846500D03*
Y851500D03*
Y856500D03*
Y861500D03*
Y866500D03*
G54D14*
X1178000Y932000D03*
D03*
X1198000D03*
D03*
X1178000Y911000D03*
D03*
X1198000D03*
D03*
X1246000Y758000D03*
D03*
Y798000D03*
D03*
X1310000Y759000D03*
D03*
Y799000D03*
D03*
X1390000Y883000D03*
D03*
G54D15*
X1204000Y768000D03*
D03*
X1332000D03*
D03*
G54D16*
X1214000D03*
D03*
X1224000D03*
D03*
X1342000D03*
D03*
X1352000D03*
D03*
G54D17*
X1290000Y774500D03*
Y787500D03*
X1300000Y825000D03*
X1313000D03*
X1300000Y845000D03*
X1313000D03*
X1300000Y870000D03*
X1313000D03*
X1300000Y887500D03*
X1313000D03*
X1312500Y907500D03*
X1299500D03*
G54D18*
X1354000Y883000D03*
D03*
G54D19*
X1360000Y927250D03*
X1355000D03*
X1365000D03*
X1375000D03*
X1370000D03*
X1380000D03*
X1355000Y907750D03*
X1360000D03*
X1365000D03*
X1370000D03*
X1375000D03*
X1380000D03*
X1385000Y927250D03*
Y907750D03*
M02*
