G04 ================== begin FILE IDENTIFICATION RECORD ==================*
G04 Layout Name:  caleidoscop1.brd*
G04 Film Name:    TOP*
G04 File Format:  Gerber RS274X*
G04 File Origin:  Cadence Allegro 17.4-S012*
G04 Origin Date:  Tue Jun  1 15:34:01 2021*
G04 *
G04 Layer:  ETCH/TOP*
G04 Layer:  PIN/TOP*
G04 Layer:  VIA CLASS/TOP*
G04 *
G04 Offset:    (0.00 0.00)*
G04 Mirror:    No*
G04 Mode:      Positive*
G04 Rotation:  0*
G04 FullContactRelief:  No*
G04 UndefLineWidth:     8.00*
G04 ================== end FILE IDENTIFICATION RECORD ====================*
%FSLAX25Y25*MOIN*%
%IR0*IPPOS*OFA0.00000B0.00000*MIA0B0*SFA1.00000B1.00000*%
%ADD12C,.024*%
%ADD11C,.06*%
%ADD16C,.052*%
%ADD10C,.025*%
%ADD20C,.055*%
%ADD14C,.065*%
%ADD17R,.06X.06*%
%ADD15R,.052X.052*%
%ADD18R,.055X.055*%
%ADD19R,.025X.05*%
%ADD13R,.05X.025*%
%ADD21C,.01575*%
%ADD22C,.03937*%
%ADD23C,.005*%
%ADD28C,.07004*%
%ADD25C,.07504*%
%ADD24C,.09154*%
%ADD27C,.08354*%
%ADD26C,.09654*%
G75*
%LPD*%
G75*
G36*
G01X1170002Y945000D02*
X1384998D01*
Y942385D01*
G02X1384334Y942085I-400J0D01*
G03X1382500Y942777I-1834J-2084D01*
G03X1381043Y942364I0J-2777D01*
G01X1362499D01*
G03X1360828Y941672I0J-2364D01*
G01X1358328Y939172D01*
G03X1357636Y937501I1672J-1671D01*
G01Y931327D01*
X1353750D01*
G03X1352850Y931045I0J-1577D01*
G01X1347500D01*
G03Y923955I0J-3545D01*
G01X1352388D01*
G03X1353750Y923173I1362J795D01*
G01X1367636D01*
Y919998D01*
G03X1368328Y918327I2364J0D01*
G01X1370827Y915828D01*
G03X1372498Y915136I1671J1672D01*
G01X1378543D01*
G03X1380000Y914723I1457J2364D01*
G03Y920277I0J2777D01*
G03X1378543Y919864I0J-2777D01*
G01X1373478D01*
X1372364Y920978D01*
Y923173D01*
X1386250D01*
G03X1387827Y924750I0J1577D01*
G01Y929750D01*
G03X1387363Y930867I-1576J0D01*
G03X1386672Y932597I-2363J59D01*
G01X1385097Y934172D01*
G03X1383426Y934864I-1671J-1672D01*
G01X1381457D01*
G03X1380000Y935277I-1457J-2364D01*
G03X1377223Y932522I0J-2777D01*
G01Y932476D01*
X1377115Y932256D01*
X1376865Y932378D01*
X1376837Y932413D01*
G03X1376672Y932597I-1840J-1484D01*
G01X1375097Y934172D01*
G03X1373426Y934864I-1671J-1672D01*
G01X1367499D01*
G03X1365828Y934172I0J-2364D01*
G01X1363328Y931672D01*
G03X1363044Y931327I1675J-1668D01*
G01X1362364D01*
Y936521D01*
X1363479Y937636D01*
X1381043D01*
G03X1382500Y937223I1457J2364D01*
G03X1384334Y937915I0J2776D01*
G02X1384998Y937615I264J-300D01*
G01Y934998D01*
X1395000D01*
Y760002D01*
X1384998D01*
Y750607D01*
X1170002D01*
Y760002D01*
X1160607D01*
Y934998D01*
X1170002D01*
Y945000D01*
G37*
%LPC*%
G75*
G36*
G01X1274903Y926672D02*
G02X1276575Y927364I1671J-1672D01*
G01X1315001D01*
G02X1316673Y926672I1J-2364D01*
G01X1326672Y916673D01*
G02X1327364Y915001I-1672J-1671D01*
G01Y890979D01*
X1354479Y863864D01*
X1357037D01*
G03X1357384Y864464I0J400D01*
G02X1357174Y865250I1366J786D01*
G01Y866983D01*
X1354359Y869797D01*
X1354307Y869811D01*
G02X1352223Y872500I693J2689D01*
G02X1355000Y875277I2777J0D01*
G02X1357689Y873193I0J-2777D01*
G01X1357703Y873141D01*
X1361517Y869326D01*
X1363750D01*
G02X1363839Y869324I9J-1576D01*
G01X1363928Y869319D01*
X1364133Y869524D01*
X1354983Y878674D01*
X1351250D01*
G02X1349674Y880250I0J1576D01*
G01Y885750D01*
G02X1351250Y887326I1576J0D01*
G01X1352636D01*
Y890925D01*
G02X1353328Y892597I2364J1D01*
G01X1354903Y894172D01*
G02X1356575Y894864I1671J-1672D01*
G01X1369021D01*
X1372636Y898479D01*
Y903673D01*
X1368136D01*
G03X1367853Y902990I0J-400D01*
G01X1368141Y902703D01*
X1368193Y902689D01*
G02X1370277Y900000I-693J-2689D01*
G02X1367500Y897223I-2777J0D01*
G02X1364811Y899307I0J2777D01*
G01X1364797Y899359D01*
X1363328Y900828D01*
G02X1362636Y902500I1672J1671D01*
G01Y903673D01*
X1357364D01*
Y902500D01*
G02X1356672Y900828I-2364J-1D01*
G01X1352703Y896859D01*
X1352689Y896807D01*
G02X1350000Y894723I-2689J693D01*
G02X1347223Y897500I0J2777D01*
G02X1349307Y900189I2777J0D01*
G01X1349359Y900203D01*
X1352636Y903479D01*
Y904134D01*
G02X1352173Y905250I1113J1116D01*
G01Y910250D01*
G02X1352248Y910732I1577J1D01*
G01X1352258Y910762D01*
Y910925D01*
G02X1352950Y912597I2364J1D01*
G01X1354525Y914172D01*
G02X1356197Y914864I1671J-1672D01*
G01X1359390D01*
X1359419Y914873D01*
G02X1360113Y914977I693J-2260D01*
G01X1368425D01*
G02X1370097Y914285I1J-2364D01*
G01X1371672Y912710D01*
G02X1372181Y911950I-1673J-1671D01*
G01X1372232Y911827D01*
X1381250D01*
G02X1382827Y910250I0J-1577D01*
G01Y905250D01*
G02X1382364Y904134I-1576J0D01*
G01Y902500D01*
G02X1381672Y900828I-2364J-1D01*
G01X1371672Y890828D01*
G02X1370000Y890136I-1671J1672D01*
G01X1357554D01*
X1357364Y889946D01*
Y887207D01*
X1357472Y887151D01*
G02X1358326Y885750I-722J-1401D01*
G01Y882017D01*
X1369172Y871172D01*
G02X1369864Y869500I-1672J-1671D01*
G01Y827500D01*
G02X1369172Y825828I-2364J-1D01*
G01X1362703Y819359D01*
X1362689Y819307D01*
G02X1360000Y817223I-2689J693D01*
G02X1357223Y820000I0J2777D01*
G02X1359307Y822689I2777J0D01*
G01X1359359Y822703D01*
X1365136Y828479D01*
Y828927D01*
G03X1364803Y829076I-200J0D01*
G02X1363750Y828674I-1052J1175D01*
G01X1363391D01*
X1363338Y828635D01*
G02X1361250Y827955I-2088J2866D01*
G01X1358500D01*
G02X1354955Y831500I0J3545D01*
G02X1358073Y835019I3545J0D01*
G03X1358249Y835227I-24J199D01*
G02X1358248Y835250I501J33D01*
G01Y837750D01*
G02X1358750Y838252I502J0D01*
G01X1363750D01*
G02X1364252Y837750I0J-502D01*
G01Y835250D01*
G02X1363750Y834748I-502J0D01*
G01X1363225D01*
Y834446D01*
X1363309Y834386D01*
G02X1363338Y834365I-2065J-2882D01*
G01X1363391Y834326D01*
X1363750D01*
G02X1364536Y834116I0J-1576D01*
G03X1365136Y834463I200J347D01*
G01Y843537D01*
G03X1364536Y843884I-400J0D01*
G02X1363750Y843674I-786J1366D01*
G01X1361767D01*
X1361686Y843593D01*
G03X1361828Y843252I142J-141D01*
G01X1363750D01*
G02X1364252Y842750I0J-502D01*
G01Y840250D01*
G02X1363750Y839748I-502J0D01*
G01X1358750D01*
G02X1358248Y840250I0J502D01*
G01Y842749D01*
X1339887D01*
G02X1338215Y843441I-1J2364D01*
G01X1326521Y855136D01*
X1287500D01*
G02X1285828Y855828I-1J2364D01*
G01X1276101Y865556D01*
X1275994Y865532D01*
G02X1275000Y865423I-993J4468D01*
G02X1279577Y870000I0J4577D01*
G02X1279468Y869006I-4577J-1D01*
G01X1279444Y868899D01*
X1279908Y868435D01*
G03X1280577Y868821I283J283D01*
G02X1280423Y870000I4423J1177D01*
G02X1285000Y874577I4577J0D01*
G02X1288919Y872364I0J-4577D01*
G01X1295424D01*
Y873000D01*
G02X1297000Y874576I1576J0D01*
G01X1303000D01*
G02X1304576Y873000I0J-1576D01*
G01Y867000D01*
G02X1303000Y865424I-1576J0D01*
G01X1297000D01*
G02X1295424Y867000I0J1576D01*
G01Y867636D01*
X1288919D01*
G02X1285000Y865423I-3919J2364D01*
G02X1283821Y865577I-2J4577D01*
G03X1283435Y864908I-103J-386D01*
G01X1288479Y859864D01*
X1327500D01*
G02X1329172Y859172I1J-2364D01*
G01X1340866Y847477D01*
X1357174D01*
Y847750D01*
G02X1357384Y848536I1576J0D01*
G03X1357037Y849136I-347J200D01*
G01X1346000D01*
G02X1344328Y849828I-1J2364D01*
G01X1319021Y875136D01*
X1287500D01*
G02X1285828Y875828I-1J2364D01*
G01X1276101Y885556D01*
X1275994Y885532D01*
G02X1275000Y885423I-993J4468D01*
G02X1279577Y890000I0J4577D01*
G02X1279468Y889006I-4577J-1D01*
G01X1279444Y888899D01*
X1279908Y888435D01*
G03X1280577Y888821I283J283D01*
G02X1280423Y890000I4423J1177D01*
G02X1285000Y894577I4577J0D01*
G02X1288919Y892364I0J-4577D01*
G01X1297500D01*
G02X1298630Y892076I-1J-2364D01*
G01X1303000D01*
G02X1304576Y890500I0J-1576D01*
G01Y884500D01*
G02X1303000Y882924I-1576J0D01*
G01X1297000D01*
G02X1295424Y884500I0J1576D01*
G01Y887636D01*
X1288919D01*
G02X1285000Y885423I-3919J2364D01*
G02X1283821Y885577I-2J4577D01*
G03X1283435Y884908I-103J-386D01*
G01X1288479Y879864D01*
X1320000D01*
G02X1321672Y879172I1J-2364D01*
G01X1346979Y853864D01*
X1357037D01*
G03X1357384Y854464I0J400D01*
G02X1357198Y854971I1365J788D01*
G01X1357169Y855136D01*
X1351457D01*
G02X1350000Y854723I-1457J2364D01*
G02Y860277I0J2777D01*
G02X1350389Y860250I3J-2777D01*
G03X1350728Y860928I56J396D01*
G01X1323328Y888328D01*
G02X1322636Y890000I1672J1671D01*
G01Y914022D01*
X1314022Y922636D01*
X1277554D01*
X1277364Y922446D01*
Y921419D01*
G02X1279577Y917500I-2364J-3919D01*
G02X1270423I-4577J0D01*
G02X1272636Y921419I4577J0D01*
G01Y923425D01*
G02X1273328Y925097I2364J1D01*
G01X1274903Y926672D01*
G37*
G36*
G01X1308998Y904500D02*
Y910500D01*
G02X1309500Y911002I502J0D01*
G01X1315500D01*
G02X1316002Y910500I0J-502D01*
G01Y904500D01*
G02X1315500Y903998I-502J0D01*
G01X1309500D01*
G02X1308998Y904500I0J502D01*
G37*
G36*
G01X1289085Y914572D02*
G03X1288497Y914547I-282J-283D01*
G02X1285000Y912923I-3497J2953D01*
G02Y922077I0J4577D01*
G02X1288862Y919957I0J-4578D01*
G01X1288921Y919864D01*
X1289500D01*
G02X1291172Y919172I1J-2364D01*
G01X1298267Y912076D01*
X1302500D01*
G02X1304076Y910500I0J-1576D01*
G01Y904500D01*
G02X1302500Y902924I-1576J0D01*
G01X1296500D01*
G02X1294924Y904500I0J1576D01*
G01Y908733D01*
X1289085Y914572D01*
G37*
G36*
G01X1217705Y776048D02*
X1241328Y799672D01*
G02X1241548Y799866I1671J-1673D01*
G02X1246000Y802827I4452J-1866D01*
G02Y793173I0J-4827D01*
G02X1242901Y794299I0J4828D01*
G01X1242760Y794417D01*
X1217884Y769541D01*
X1217928Y769422D01*
G02X1218177Y768000I-3928J-1421D01*
G02X1209823I-4177J0D01*
G02X1212636Y771948I4177J0D01*
G01Y774021D01*
X1204021Y782636D01*
X1177919D01*
G02X1174000Y780423I-3919J2364D01*
G02Y789577I0J4577D01*
G02X1177919Y787364I0J-4577D01*
G01X1205000D01*
G02X1206672Y786672I1J-2364D01*
G01X1216672Y776672D01*
G02X1217072Y776139I-1672J-1672D01*
G03X1217705Y776048I351J192D01*
G37*
G36*
G01X1282636Y797500D02*
Y798581D01*
G02X1280423Y802500I2364J3919D01*
G02X1289577I4577J0D01*
G02X1287696Y798801I-4578J0D01*
G03X1287648Y798195I235J-324D01*
G01X1291672Y794172D01*
G02X1292364Y792500I-1672J-1671D01*
G01Y792076D01*
X1293000D01*
G02X1294576Y790500I0J-1576D01*
G01Y784500D01*
G02X1293000Y782924I-1576J0D01*
G01X1287000D01*
G02X1285424Y784500I0J1576D01*
G01Y790500D01*
G02X1286409Y791961I1576J0D01*
G03X1286542Y792615I-150J371D01*
G01X1283328Y795828D01*
G02X1282636Y797500I1672J1671D01*
G37*
G36*
G01X1280577Y843821D02*
G02X1280423Y844997I4423J1177D01*
G01Y845000D01*
G02X1285000Y849577I4577J0D01*
G02X1288919Y847364I0J-4577D01*
G01X1295424D01*
Y848000D01*
G02X1297000Y849576I1576J0D01*
G01X1303000D01*
G02X1304576Y848000I0J-1576D01*
G01Y842000D01*
G02X1303000Y840424I-1576J0D01*
G01X1297000D01*
G02X1295424Y842000I0J1576D01*
G01Y842636D01*
X1288919D01*
G02X1285000Y840423I-3919J2364D01*
G01X1284997D01*
G02X1283821Y840577I1J4577D01*
G03X1283428Y839916I-103J-386D01*
G01X1285979Y837364D01*
X1348543D01*
G02X1350000Y837777I1457J-2364D01*
G02Y832223I0J-2777D01*
G02X1348543Y832636I0J2777D01*
G01X1284999D01*
G02X1283328Y833328I0J2364D01*
G01X1277553Y839104D01*
X1276101Y840556D01*
X1275994Y840532D01*
G02X1275002Y840423I-993J4468D01*
G01X1275000D01*
G02X1279577Y845000I0J4577D01*
G01Y844998D01*
G02X1279468Y844006I-4577J1D01*
G01X1279444Y843899D01*
X1279916Y843428D01*
G03X1280577Y843821I275J290D01*
G37*
G36*
G01X1203493Y942507D02*
G02X1206000Y943545I2506J-2507D01*
G01X1277105D01*
G02X1280000Y944577I2895J-3545D01*
G02Y935423I0J-4577D01*
G02X1277105Y936455I0J4577D01*
G01X1207468D01*
X1202824Y931810D01*
X1202820Y931734D01*
G02X1201545Y928724I-4820J267D01*
G01Y914276D01*
G02X1202827Y911000I-3545J-3276D01*
G02X1201533Y907711I-4827J0D01*
G02X1200507Y905493I-3533J288D01*
G01X1191045Y896032D01*
Y874218D01*
X1194937Y870326D01*
X1195250D01*
G02X1196826Y868750I0J-1576D01*
G01Y866250D01*
G02X1195250Y864674I-1576J0D01*
G01X1194891D01*
X1194838Y864635D01*
G02X1194809Y864614I-2094J2861D01*
G01X1194725Y864554D01*
Y864252D01*
X1195250D01*
G02X1195752Y863750I0J-502D01*
G01Y861250D01*
G02X1195250Y860748I-502J0D01*
G01X1190250D01*
G02X1189748Y861250I0J502D01*
G01Y863750D01*
G02X1190250Y864252I502J0D01*
G01X1190775D01*
Y864554D01*
X1190691Y864614D01*
G02X1190662Y864635I2065J2882D01*
G01X1190609Y864674D01*
X1190250D01*
G02X1188674Y866250I0J1576D01*
G01Y866563D01*
X1184993Y870243D01*
G02X1183955Y872750I2507J2506D01*
G01Y897500D01*
G02X1184993Y900007I3545J1D01*
G01X1193732Y908745D01*
G02X1193173Y911000I4269J2255D01*
G02X1194455Y914276I4827J0D01*
G01Y928724D01*
G02X1193173Y932000I3545J3276D01*
G02X1197734Y936820I4827J0D01*
G01X1197810Y936824D01*
X1203493Y942507D01*
G37*
G36*
G01X1198328Y899172D02*
X1220828Y921672D01*
G02X1222500Y922364I1671J-1672D01*
G01X1262500D01*
G02X1263861Y921933I0J-2364D01*
G02X1265000Y922077I1139J-4433D01*
G02Y912923I0J-4577D01*
G02X1260423Y917439I0J4577D01*
G01X1260421Y917636D01*
X1223479D01*
X1202364Y896521D01*
Y896457D01*
G02X1202777Y895000I-2364J-1457D01*
G02X1197223I-2777J0D01*
G02X1197608Y896411I2778J0D01*
G01X1197636Y896458D01*
Y897500D01*
G02X1198328Y899172I2364J1D01*
G37*
G36*
G01X1170886Y870525D02*
Y872793D01*
G02X1170473Y874250I2364J1457D01*
G02X1176027I2777J0D01*
G02X1175614Y872793I-2777J0D01*
G01Y870525D01*
G03X1175807Y870325I200J0D01*
G02X1177326Y868750I-57J-1575D01*
G01Y866250D01*
G02X1175750Y864674I-1576J0D01*
G01X1170750D01*
G02X1169634Y865136I-1J1576D01*
G01X1168958D01*
X1168911Y865108D01*
G02X1167500Y864723I-1411J2393D01*
G02Y870277I0J2777D01*
G02X1168911Y869892I0J-2778D01*
G01X1168958Y869864D01*
X1169634D01*
G02X1170693Y870325I1115J-1114D01*
G03X1170886Y870525I-7J200D01*
G37*
G36*
G01X1169174Y856250D02*
Y858750D01*
G02X1170750Y860326I1576J0D01*
G01X1175750D01*
G02X1177326Y858750I0J-1576D01*
G01Y856250D01*
G02X1176870Y855141I-1577J0D01*
G03Y854859I142J-141D01*
G02X1177326Y853750I-1121J-1109D01*
G01Y851250D01*
G02X1176870Y850141I-1577J0D01*
G03Y849859I142J-141D01*
G02X1177326Y848750I-1121J-1109D01*
G01Y846250D01*
G02X1176870Y845141I-1577J0D01*
G03Y844859I142J-141D01*
G02X1177326Y843750I-1121J-1109D01*
G01Y841250D01*
G02X1176870Y840141I-1577J0D01*
G03Y839859I142J-141D01*
G02X1177326Y838750I-1121J-1109D01*
G01Y836250D01*
G02X1175750Y834674I-1576J0D01*
G01X1170750D01*
G02X1169174Y836250I0J1576D01*
G01Y838750D01*
Y838770D01*
X1169175Y838854D01*
X1168974Y839055D01*
X1167364Y837446D01*
Y820979D01*
X1173479Y814864D01*
X1255000D01*
G02X1256672Y814172I1J-2364D01*
G01X1263899Y806944D01*
X1264006Y806968D01*
G02X1265000Y807077I993J-4468D01*
G02X1260423Y802500I0J-4577D01*
G02X1260532Y803494I4577J1D01*
G01X1260556Y803601D01*
X1254021Y810136D01*
X1172500D01*
G02X1170828Y810828I-1J2364D01*
G01X1163328Y818328D01*
G02X1162636Y820000I1672J1671D01*
G01Y838425D01*
G02X1163328Y840097I2364J1D01*
G01X1167403Y844172D01*
G02X1169075Y844864I1671J-1672D01*
G01X1169427D01*
G03X1169576Y845197I0J200D01*
G02X1169174Y846250I1175J1052D01*
G01Y848750D01*
G02X1169630Y849859I1577J0D01*
G03Y850141I-142J141D01*
G02X1169174Y851250I1121J1109D01*
G01Y853750D01*
G02X1169630Y854859I1577J0D01*
G03Y855141I-142J141D01*
G02X1169174Y856250I1121J1109D01*
G37*
G36*
G01X1376674Y830250D02*
Y832750D01*
G02X1378250Y834326I1576J0D01*
G01X1383250D01*
G02X1384826Y832750I0J-1576D01*
G01Y830250D01*
G02X1383307Y828675I-1576J0D01*
G03X1383114Y828475I7J-200D01*
G01Y792346D01*
G02X1383364Y791288I-2114J-1058D01*
G01Y790921D01*
X1383457Y790862D01*
G02X1385577Y787000I-2458J-3862D01*
G02X1376423I-4577J0D01*
G02X1378494Y790830I4577J0D01*
G02X1378386Y791538I2256J706D01*
G01Y816638D01*
X1377481D01*
X1375203Y814359D01*
X1375189Y814307D01*
G02X1372500Y812223I-2689J693D01*
G02X1369723Y815000I0J2777D01*
G02X1371807Y817689I2777J0D01*
G01X1371859Y817703D01*
X1374830Y820674D01*
G02X1376502Y821366I1671J-1672D01*
G01X1378386D01*
Y828475D01*
G03X1378193Y828675I-200J0D01*
G02X1376674Y830250I57J1575D01*
G37*
G36*
G01X1169556Y796101D02*
X1163859Y801797D01*
X1163807Y801811D01*
G02X1161723Y804500I693J2689D01*
G02X1164500Y807277I2777J0D01*
G02X1167189Y805193I0J-2777D01*
G01X1167203Y805141D01*
X1172899Y799444D01*
X1173006Y799468D01*
G02X1174000Y799577I993J-4468D01*
G02X1169423Y795000I0J-4577D01*
G02X1169532Y795994I4577J1D01*
G01X1169556Y796101D01*
G37*
G36*
G01X1383248Y905250D02*
Y910250D01*
G02X1383750Y910752I502J0D01*
G01X1386250D01*
G02X1386752Y910250I0J-502D01*
G01Y905250D01*
G02X1386250Y904748I-502J0D01*
G01X1383750D01*
G02X1383248Y905250I0J502D01*
G37*
G36*
G01X1377748Y835250D02*
Y837750D01*
G02X1378250Y838252I502J0D01*
G01X1383250D01*
G02X1383752Y837750I0J-502D01*
G01Y835250D01*
G02X1383250Y834748I-502J0D01*
G01X1378250D01*
G02X1377748Y835250I0J502D01*
G37*
G36*
G01X1170248Y831250D02*
Y833750D01*
G02X1170750Y834252I502J0D01*
G01X1175750D01*
G02X1176252Y833750I0J-502D01*
G01Y831250D01*
G02X1175750Y830748I-502J0D01*
G01X1170750D01*
G02X1170248Y831250I0J502D01*
G37*
G36*
G01Y861250D02*
Y863750D01*
G02X1170750Y864252I502J0D01*
G01X1175750D01*
G02X1176252Y863750I0J-502D01*
G01Y861250D01*
G02X1175750Y860748I-502J0D01*
G01X1170750D01*
G02X1170248Y861250I0J502D01*
G37*
G36*
G01X1199824Y765400D02*
Y770600D01*
G02X1201400Y772176I1576J0D01*
G01X1206600D01*
G02X1208176Y770600I0J-1576D01*
G01Y765400D01*
G02X1206600Y763824I-1576J0D01*
G01X1201400D01*
G02X1199824Y765400I0J1576D01*
G37*
G36*
G01X1309498Y884500D02*
Y890500D01*
G02X1310000Y891002I502J0D01*
G01X1316000D01*
G02X1316502Y890500I0J-502D01*
G01Y884500D01*
G02X1316000Y883998I-502J0D01*
G01X1310000D01*
G02X1309498Y884500I0J502D01*
G37*
G36*
G01Y867000D02*
Y873000D01*
G02X1310000Y873502I502J0D01*
G01X1316000D01*
G02X1316502Y873000I0J-502D01*
G01Y867000D01*
G02X1316000Y866498I-502J0D01*
G01X1310000D01*
G02X1309498Y867000I0J502D01*
G37*
G36*
G01Y822000D02*
Y828000D01*
G02X1310000Y828502I502J0D01*
G01X1316000D01*
G02X1316502Y828000I0J-502D01*
G01Y822000D01*
G02X1316000Y821498I-502J0D01*
G01X1310000D01*
G02X1309498Y822000I0J502D01*
G37*
G36*
G01Y842000D02*
Y848000D01*
G02X1310000Y848502I502J0D01*
G01X1316000D01*
G02X1316502Y848000I0J-502D01*
G01Y842000D01*
G02X1316000Y841498I-502J0D01*
G01X1310000D01*
G02X1309498Y842000I0J502D01*
G37*
G36*
G01X1286498Y771500D02*
Y777500D01*
G02X1287000Y778002I502J0D01*
G01X1293000D01*
G02X1293502Y777500I0J-502D01*
G01Y771500D01*
G02X1293000Y770998I-502J0D01*
G01X1287000D01*
G02X1286498Y771500I0J502D01*
G37*
G36*
G01X1295424Y822636D02*
X1288919D01*
G02X1285000Y820423I-3919J2364D01*
G02Y829577I0J4577D01*
G02X1288919Y827364I0J-4577D01*
G01X1295424D01*
Y828000D01*
G02X1297000Y829576I1576J0D01*
G01X1303000D01*
G02X1304576Y828000I0J-1576D01*
G01Y822000D01*
G02X1303000Y820424I-1576J0D01*
G01X1297000D01*
G02X1295424Y822000I0J1576D01*
G01Y822636D01*
G37*
G36*
G01X1367311Y794306D02*
X1367298Y794359D01*
X1354021Y807636D01*
X1280980D01*
X1278631Y805287D01*
G02X1279577Y802502I-3631J-2787D01*
G01Y802500D01*
G02X1270423I-4577J0D01*
G02X1273471Y806814I4577J0D01*
G01X1275227Y808570D01*
X1278328Y811672D01*
G02X1279999Y812364I1671J-1672D01*
G01X1355001D01*
G02X1356672Y811672I0J-2364D01*
G01X1370642Y797702D01*
X1370694Y797689D01*
G02X1372777Y795000I-694J-2689D01*
G02X1370000Y792223I-2777J0D01*
G02X1367311Y794306I0J2777D01*
G37*
G36*
G01X1387636Y865978D02*
Y879376D01*
G02X1385673Y883000I2364J3624D01*
G02X1394327I4327J0D01*
G02X1392364Y879376I-4327J0D01*
G01Y864998D01*
G02X1391672Y863327I-2364J0D01*
G01X1389173Y860828D01*
G02X1387502Y860136I-1671J1672D01*
G01X1384823D01*
G02X1384370Y859141I-1572J115D01*
G03Y858859I142J-141D01*
G02X1384816Y857931I-1120J-1110D01*
G01X1384824Y857862D01*
X1385321Y857364D01*
X1388543D01*
G02X1390000Y857777I1457J-2364D01*
G02Y852223I0J-2777D01*
G02X1388543Y852636I0J2777D01*
G01X1384826D01*
Y850250D01*
G02X1384370Y849141I-1577J0D01*
G03Y848859I142J-141D01*
G02X1384826Y847750I-1121J-1109D01*
G01Y845250D01*
G02X1384370Y844141I-1577J0D01*
G03Y843859I142J-141D01*
G02X1384826Y842750I-1121J-1109D01*
G01Y840250D01*
G02X1383250Y838674I-1576J0D01*
G01X1378250D01*
G02X1376674Y840250I0J1576D01*
G01Y842750D01*
G02X1377130Y843859I1577J0D01*
G03Y844141I-142J141D01*
G02X1376674Y845250I1121J1109D01*
G01Y847750D01*
G02X1377130Y848859I1577J0D01*
G03Y849141I-142J141D01*
G02X1376674Y850250I1121J1109D01*
G01Y852750D01*
G02X1377130Y853859I1577J0D01*
G03Y854141I-142J141D01*
G02X1376674Y855250I1121J1109D01*
G01Y857750D01*
G02X1377130Y858859I1577J0D01*
G03Y859141I-142J141D01*
G02X1376674Y860250I1121J1109D01*
G01Y862750D01*
G02X1378250Y864326I1576J0D01*
G01X1380249D01*
G02X1380328Y864389I1513J-1816D01*
G03X1380207Y864748I-121J159D01*
G01X1378250D01*
G02X1377748Y865250I0J502D01*
G01Y867750D01*
G02X1378250Y868252I502J0D01*
G01X1383250D01*
G02X1383752Y867750I0J-502D01*
G01Y865250D01*
G02X1383734Y865117I-502J0D01*
G01X1383727Y865091D01*
Y864864D01*
X1386522D01*
X1387636Y865978D01*
G37*
G36*
G01X1327824Y765400D02*
Y770600D01*
G02X1329400Y772176I1576J0D01*
G01X1334600D01*
G02X1336176Y770600I0J-1576D01*
G01Y765400D01*
G02X1334600Y763824I-1576J0D01*
G01X1329400D01*
G02X1327824Y765400I0J1576D01*
G37*
G36*
G01X1317521Y796636D02*
X1314208D01*
G02X1310000Y794173I-4208J2363D01*
G02Y803827I0J4827D01*
G02X1314208Y801364I0J-4826D01*
G01X1318500D01*
G02X1320172Y800672I1J-2364D01*
G01X1343672Y777172D01*
G02X1344364Y775500I-1672J-1671D01*
G01Y774673D01*
G03X1345047Y774390I400J0D01*
G01X1347328Y776672D01*
G02X1349000Y777364I1671J-1672D01*
G01X1376434D01*
X1376455Y777540D01*
G02X1381000Y781577I4545J-540D01*
G02Y772423I0J-4577D01*
G02X1379476Y772684I0J4577D01*
G02X1379000Y772636I-474J2316D01*
G01X1349979D01*
X1346108Y768765D01*
X1346124Y768664D01*
G02X1346177Y768000I-4124J-663D01*
G02X1337823I-4177J0D01*
G02X1339636Y771444I4178J0D01*
G01Y774521D01*
X1317521Y796636D01*
G37*
G36*
G01X1349999Y942364D02*
X1351043D01*
X1351089Y942392D01*
G02X1352500Y942777I1411J-2393D01*
G02Y937223I0J-2777D01*
G02X1351133Y937583I0J2777D01*
G01X1351041Y937636D01*
X1350979D01*
X1337703Y924359D01*
X1337689Y924307D01*
G02X1335000Y922223I-2689J693D01*
G02X1332223Y925000I0J2777D01*
G02X1334307Y927689I2777J0D01*
G01X1334359Y927703D01*
X1348328Y941672D01*
G02X1348492Y941821I1670J-1673D01*
G02X1349999Y942364I1508J-1821D01*
G37*
G36*
G01X1223328Y904172D02*
G02X1225000Y904864I1671J-1672D01*
G01X1252500D01*
G02X1254172Y904172I1J-2364D01*
G01X1263899Y894444D01*
X1264006Y894468D01*
G02X1265000Y894577I993J-4468D01*
G02X1260423Y890000I0J-4577D01*
G02X1260532Y890994I4577J1D01*
G01X1260556Y891101D01*
X1251521Y900136D01*
X1225979D01*
X1210203Y884359D01*
X1210189Y884307D01*
G02X1209473Y883045I-2690J692D01*
G03X1209757Y882364I284J-281D01*
G01X1255000D01*
G02X1256672Y881672I1J-2364D01*
G01X1263899Y874444D01*
X1264006Y874468D01*
G02X1265000Y874577I993J-4468D01*
G02X1260423Y870000I0J-4577D01*
G02X1260532Y870994I4577J1D01*
G01X1260556Y871101D01*
X1254021Y877636D01*
X1208480D01*
X1202364Y871520D01*
Y855000D01*
G02X1201672Y853328I-2364J-1D01*
G01X1200472Y852128D01*
G02X1198800Y851436I-1671J1672D01*
G01X1196827D01*
Y849864D01*
X1201520D01*
X1205136Y853480D01*
Y868543D01*
G02X1204723Y870000I2364J1457D01*
G02X1210277I2777J0D01*
G02X1209864Y868543I-2777J0D01*
G01Y852501D01*
G02X1209172Y850829I-2364J-1D01*
G01X1204171Y845828D01*
G02X1203889Y845588I-1669J1675D01*
G03X1204124Y844864I235J-324D01*
G01X1260421D01*
X1260423Y845061D01*
G02X1265000Y849577I4577J-61D01*
G02Y840423I0J-4577D01*
G02X1263861Y840567I0J4577D01*
G02X1262500Y840136I-1361J1933D01*
G01X1202257D01*
G03X1201973Y839455I0J-400D01*
G02X1202777Y837500I-1973J-1954D01*
G02X1201973Y835545I-2777J-1D01*
G03X1202257Y834864I284J-281D01*
G01X1257500D01*
G02X1259172Y834172I1J-2364D01*
G01X1263899Y829444D01*
X1264006Y829468D01*
G02X1265000Y829577I993J-4468D01*
G02X1260423Y825000I0J-4577D01*
G02X1260532Y825994I4577J1D01*
G01X1260556Y826101D01*
X1256521Y830136D01*
X1196366D01*
G02X1195250Y829673I-1116J1113D01*
G01X1190250D01*
G02X1188673Y831250I0J1577D01*
G01Y853750D01*
G02X1190250Y855327I1577J0D01*
G01X1193324D01*
X1193404Y855407D01*
G03X1193262Y855748I-142J141D01*
G01X1190250D01*
G02X1189748Y856250I0J502D01*
G01Y858750D01*
G02X1190250Y859252I502J0D01*
G01X1195250D01*
G02X1195752Y858750I0J-502D01*
G01Y856164D01*
X1197636D01*
Y872499D01*
G02X1198328Y874171I2364J1D01*
G01X1205829Y881672D01*
G02X1206133Y881928I1669J-1674D01*
G03X1206103Y882600I-231J326D01*
G02X1204723Y885000I1397J2400D01*
G02X1206807Y887689I2777J0D01*
G01X1206859Y887703D01*
X1223328Y904172D01*
G37*
G54D28*
X1290000Y940000D03*
G54D25*
X1178000Y932000D03*
Y911000D03*
G54D24*
X1275000Y825000D03*
G54D27*
X1224000Y768000D03*
X1352000D03*
G54D26*
X1246000Y758000D03*
X1310000Y759000D03*
%LPD*%
G75*
G54D10*
X1160000Y750000D03*
Y945000D03*
X1395000Y750000D03*
Y945000D03*
G54D20*
X1390000Y883000D03*
G54D11*
X1174000Y795000D03*
Y785000D03*
X1285000Y802500D03*
X1275000D03*
X1265000D03*
X1285000Y825000D03*
X1275000D03*
X1265000D03*
X1285000Y845000D03*
X1275000D03*
X1265000D03*
X1285000Y870000D03*
X1275000D03*
X1265000D03*
X1285000Y890000D03*
X1275000D03*
X1265000D03*
X1285000Y917500D03*
X1275000D03*
X1265000D03*
X1290000Y940000D03*
X1280000D03*
X1381000Y777000D03*
Y787000D03*
G54D21*
G01X1174000Y795000D02*
X1164500Y804500D01*
G01X1173250Y842500D02*
X1169075D01*
X1165000Y838425D01*
Y820000D01*
X1172500Y812500D01*
X1255000D01*
X1265000Y802500D01*
G01X1167500Y867500D02*
X1173250D01*
G01X1215000Y770000D02*
Y775000D01*
X1205000Y785000D01*
X1174000D01*
G01X1265000Y825000D02*
X1257500Y832500D01*
X1192750D01*
G01Y837500D02*
X1200000D01*
G01X1173250Y867500D02*
Y874250D01*
G01X1192750Y852500D02*
X1193840D01*
X1195140Y853800D01*
X1198800D01*
X1200000Y855000D01*
Y872499D01*
X1207501Y880000D01*
X1255000D01*
X1265000Y870000D01*
G01X1192750Y847500D02*
X1202499D01*
X1207500Y852501D01*
Y870000D01*
G01X1265000Y845000D02*
X1262500Y842500D01*
X1192750D01*
G01X1265000Y917500D02*
X1262500Y920000D01*
X1222500D01*
X1200000Y897500D01*
Y895000D01*
G01X1246000Y798000D02*
X1243000D01*
X1215000Y770000D01*
G01D02*
Y769000D01*
X1214000Y768000D01*
G01X1207500Y885000D02*
X1225000Y902500D01*
X1252500D01*
X1265000Y890000D01*
G01X1370000Y795000D02*
X1355000Y810000D01*
X1280000D01*
X1275000Y805000D01*
Y802500D01*
G01X1285000D02*
Y797500D01*
X1290000Y792500D01*
Y787500D01*
G01X1350000Y835000D02*
X1285000D01*
X1275000Y845000D01*
G01X1285000Y825000D02*
X1300000D01*
G01X1361250Y846500D02*
X1359863Y845113D01*
X1339887D01*
X1327500Y857500D01*
X1287500D01*
X1275000Y870000D01*
G01X1285000D02*
X1300000D01*
G01X1285000Y845000D02*
X1300000D01*
G01X1361250Y851500D02*
X1346000D01*
X1320000Y877500D01*
X1287500D01*
X1275000Y890000D01*
G01X1285000D02*
X1297500D01*
X1300000Y887500D01*
G01X1275000Y917500D02*
Y923425D01*
X1276575Y925000D01*
X1315001D01*
X1325000Y915001D01*
Y890000D01*
X1353500Y861500D01*
X1361250D01*
G01X1285000Y917500D02*
X1289500D01*
X1299500Y907500D01*
G01X1310000Y799000D02*
X1318500D01*
X1342000Y775500D01*
Y768000D01*
G01X1381000Y777000D02*
X1379000Y775000D01*
X1349000D01*
X1342000Y768000D01*
G01X1350000Y857500D02*
X1360250D01*
X1361250Y856500D01*
G01X1350000Y897500D02*
X1355000Y902500D01*
Y907750D01*
G01X1335000Y925000D02*
X1350000Y940000D01*
X1352500D01*
G01X1380750Y819101D02*
Y791538D01*
X1381000Y791288D01*
Y787000D01*
G01X1360000Y820000D02*
X1367500Y827500D01*
Y869500D01*
X1354000Y883000D01*
G01X1380750Y831500D02*
Y819101D01*
G01X1372500Y815000D02*
X1376502Y819002D01*
X1380651D01*
X1380750Y819101D01*
G01X1390000Y883000D02*
Y864999D01*
X1387501Y862500D01*
X1381750D01*
X1380750Y861500D01*
G01X1390000Y855000D02*
X1384342D01*
X1382842Y856500D01*
X1380750D01*
G01X1361250Y866500D02*
X1361000D01*
X1355000Y872500D01*
G01X1367500Y900000D02*
X1365000Y902500D01*
Y907750D01*
G01X1375000Y897500D02*
Y907750D01*
G01X1380000D02*
Y902500D01*
X1375000Y897500D01*
G01X1354000Y883000D02*
X1355000Y884000D01*
Y890925D01*
X1356575Y892500D01*
X1370000D01*
X1375000Y897500D01*
G01X1360000Y912500D02*
Y907750D01*
G01Y912500D02*
X1356197D01*
X1354622Y910925D01*
Y908128D01*
X1355000Y907750D01*
G01X1370000D02*
Y911038D01*
X1368425Y912613D01*
X1360113D01*
X1360000Y912500D01*
G01X1380000Y927250D02*
Y932500D01*
G01Y917500D02*
X1372499D01*
X1370000Y919999D01*
Y927250D01*
G01X1360000D02*
X1365000D01*
G01X1382500Y940000D02*
X1362500D01*
X1360000Y937500D01*
Y927250D01*
G01X1375000D02*
Y930925D01*
X1373425Y932500D01*
X1367500D01*
X1365000Y930000D01*
Y927250D01*
G01X1385000D02*
Y930925D01*
X1383425Y932500D01*
X1380000D01*
G54D12*
X1164500Y804500D03*
X1167500Y867500D03*
X1200000Y837500D03*
X1173250Y874250D03*
X1200000Y895000D03*
X1207500Y870000D03*
Y885000D03*
X1350000Y835000D03*
Y857500D03*
Y897500D03*
X1347500Y927500D03*
X1335000Y925000D03*
X1370000Y795000D03*
X1358500Y831500D03*
X1360000Y820000D03*
X1372500Y815000D03*
X1367500Y900000D03*
X1355000Y872500D03*
X1380000Y917500D03*
X1352500Y940000D03*
X1380000Y932500D03*
X1390000Y855000D03*
X1382500Y940000D03*
G54D22*
G01X1192750Y867500D02*
X1187500Y872750D01*
Y897500D01*
X1198000Y908000D01*
Y911000D01*
G01Y932000D02*
Y911000D01*
G01X1280000Y940000D02*
X1206000D01*
X1198000Y932000D01*
G01X1347500Y927500D02*
X1354750D01*
X1355000Y927250D01*
G01X1361250Y831500D02*
X1358500D01*
G54D13*
X1192750Y832500D03*
Y837500D03*
X1173250D03*
Y832500D03*
X1192750Y862500D03*
Y867500D03*
Y857500D03*
Y847500D03*
Y852500D03*
Y842500D03*
X1173250Y867500D03*
Y862500D03*
Y857500D03*
Y852500D03*
Y847500D03*
Y842500D03*
X1361250Y836500D03*
Y831500D03*
X1380750D03*
Y836500D03*
X1361250Y841500D03*
Y851500D03*
Y846500D03*
Y856500D03*
Y866500D03*
Y861500D03*
X1380750Y841500D03*
Y846500D03*
Y851500D03*
Y856500D03*
Y861500D03*
Y866500D03*
G54D23*
G01X1170048Y832500D02*
X1173250D01*
G01X1170048Y862500D02*
X1173250D01*
G01Y830548D02*
Y832500D01*
G01D02*
X1176452D01*
G01X1192750Y860548D02*
Y862500D01*
G01X1189548D02*
X1192750D01*
G01D02*
X1195952D01*
G01X1173250D02*
X1176452D01*
G01X1192750Y857500D02*
Y859452D01*
G01X1189548Y857500D02*
X1192750D01*
G01D02*
X1195952D01*
G01X1178000Y907048D02*
Y911000D01*
G01D02*
Y914952D01*
G01X1174048Y911000D02*
X1178000D01*
G01D02*
X1181952D01*
G01X1178000Y928048D02*
Y932000D01*
G01D02*
Y935952D01*
G01X1174048Y932000D02*
X1178000D01*
G01D02*
X1181952D01*
G01X1290000Y770798D02*
Y774500D01*
G01D02*
Y778202D01*
G01X1286298Y774500D02*
X1290000D01*
G01D02*
X1293702D01*
G01X1290000Y936298D02*
Y940000D01*
G01D02*
Y943702D01*
G01X1286298Y940000D02*
X1290000D01*
G01D02*
X1293702D01*
G01X1313000Y821298D02*
Y825000D01*
G01D02*
Y828702D01*
G01X1309298Y825000D02*
X1313000D01*
G01D02*
X1316702D01*
G01X1313000Y841298D02*
Y845000D01*
G01D02*
Y848702D01*
G01X1309298Y845000D02*
X1313000D01*
G01D02*
X1316702D01*
G01X1313000Y866298D02*
Y870000D01*
G01D02*
Y873702D01*
G01X1309298Y870000D02*
X1313000D01*
G01D02*
X1316702D01*
G01X1313000Y883798D02*
Y887500D01*
G01D02*
Y891202D01*
G01X1309298Y887500D02*
X1313000D01*
G01D02*
X1316702D01*
G01X1312500Y903798D02*
Y907500D01*
G01D02*
Y911202D01*
G01X1308798Y907500D02*
X1312500D01*
G01D02*
X1316202D01*
G01X1377548Y836500D02*
X1380750D01*
G01X1361250Y839548D02*
Y841500D01*
G01Y836500D02*
Y838452D01*
G01X1358048Y836500D02*
X1361250D01*
G01D02*
X1364452D01*
G01X1377548Y866500D02*
X1380750D01*
G01X1358048Y841500D02*
X1361250D01*
G01D02*
X1364452D01*
G01X1380750Y836500D02*
X1383952D01*
G01X1380750Y866500D02*
Y868452D01*
G01Y866500D02*
X1383952D01*
G01X1385000Y904548D02*
Y907750D01*
G01D02*
Y910952D01*
G01Y907750D02*
X1386952D01*
G54D14*
X1178000Y932000D03*
X1198000D03*
X1178000Y911000D03*
X1198000D03*
X1246000Y758000D03*
Y798000D03*
X1310000Y759000D03*
Y799000D03*
G54D15*
X1204000Y768000D03*
X1332000D03*
G54D16*
X1214000D03*
X1224000D03*
X1342000D03*
X1352000D03*
G54D17*
X1290000Y774500D03*
Y787500D03*
X1300000Y825000D03*
X1313000D03*
X1300000Y845000D03*
X1313000D03*
X1300000Y870000D03*
X1313000D03*
X1300000Y887500D03*
X1313000D03*
X1312500Y907500D03*
X1299500D03*
G54D18*
X1354000Y883000D03*
G54D19*
X1360000Y927250D03*
X1355000D03*
X1365000D03*
X1375000D03*
X1370000D03*
X1380000D03*
X1355000Y907750D03*
X1360000D03*
X1365000D03*
X1370000D03*
X1375000D03*
X1380000D03*
X1385000Y927250D03*
Y907750D03*
M02*
